<svg id="Layer_1" data-name="Layer 1" xmlns="http://www.w3.org/2000/svg" viewBox="0 0 512 512"><defs><style>.cls-1{fill:#74c666;}.cls-2{fill:#54af47;}.cls-3{fill:#418c34;}.cls-4{fill:#f4536a;}.cls-5{fill:#ee374b;}</style></defs><title>berries-flat</title><path class="cls-1" d="M178.09,411.83a77.44,77.44,0,0,1,10.69-39.26,77.39,77.39,0,0,1-71.27-87.1c-10.38,4.69-21.94,5.61-33.41,3.26A15.53,15.53,0,0,0,65.78,299.3c-4.23,12.71-12.22,23.37-23.67,30A51,51,0,0,1,16.29,336C5.35,336-2.61,346,.8,357.24,8,380.8,8.28,404.6,2.25,425.09a19.41,19.41,0,0,0,13.85,24c20.76,5,41.22,17.19,58,35.18,8,8.56,20.65,6.67,26.1-2.81a51,51,0,0,1,18.77-19c11.44-6.61,24.68-8.2,37.8-5.51a15.53,15.53,0,0,0,18.32-10.58,59.07,59.07,0,0,1,6.08-12.9A77.8,77.8,0,0,1,178.09,411.83Z"/><path class="cls-1" d="M495.71,336a51,51,0,0,1-25.82-6.77c-11.44-6.61-19.44-17.27-23.67-30a15.53,15.53,0,0,0-18.32-10.58c-11.47,2.36-23,1.43-33.41-3.26a77.39,77.39,0,0,1-71.27,87.1,77.23,77.23,0,0,1,7.58,60.92,59.07,59.07,0,0,1,6.08,12.9A15.53,15.53,0,0,0,355.19,457c13.12-2.69,26.35-1.1,37.8,5.51a51,51,0,0,1,18.77,19c5.46,9.48,18.1,11.37,26.1,2.81,16.82-18,37.28-30.15,58-35.18a19.41,19.41,0,0,0,13.85-24c-6-20.5-5.72-44.3,1.45-67.86C514.61,346,506.65,336,495.71,336Z"/><path class="cls-2" d="M511.2,357.24c-7.17,23.56-7.48,47.36-1.45,67.86a19.41,19.41,0,0,1-13.85,24A104.81,104.81,0,0,0,477,455.74a18.22,18.22,0,0,0-.68-4.46c-6-20.5-5.72-44.3,1.45-67.86,3.41-11.21-4.55-21.21-15.49-21.2a51,51,0,0,1-25.82-6.77c-11.44-6.61-19.44-17.27-23.67-30a15.53,15.53,0,0,0-18.32-10.58c-.71.15-1.42.24-2.13.36a74.76,74.76,0,0,0,2.11-29.81c10.38,4.69,21.94,5.61,33.41,3.26a15.53,15.53,0,0,1,18.32,10.58c4.23,12.71,12.22,23.37,23.67,30A51,51,0,0,0,495.71,336C506.65,336,514.61,346,511.2,357.24ZM116.87,295a78.31,78.31,0,0,1,.64-9.49c-10.38,4.69-21.94,5.61-33.41,3.26A15.53,15.53,0,0,0,65.78,299.3a57.77,57.77,0,0,1-8.61,16.55,52.69,52.69,0,0,0,26.95-4.2,77.39,77.39,0,0,0,71.27,87.1,76.76,76.76,0,0,0-8.57,57,60.4,60.4,0,0,1,10,1.2,15.53,15.53,0,0,0,18.32-10.58,59.07,59.07,0,0,1,6.08-12.9,77.23,77.23,0,0,1,7.58-60.92A77.87,77.87,0,0,1,116.87,295Z"/><path class="cls-1" d="M179.1,202.63a50,50,0,0,1-3,16.75A77.28,77.28,0,0,1,256,246.86a77.28,77.28,0,0,1,79.87-27.48,50,50,0,0,1-3-16.75c0-13.22,5.24-25.47,14.13-35.49A15.53,15.53,0,0,0,347,146c-8.89-10-14.13-22.27-14.13-35.49A51,51,0,0,1,340,84.76c5.48-9.47.8-21.36-10.62-24-24-5.57-44.75-17.2-59.49-32.67a19.41,19.41,0,0,0-27.7,0c-14.74,15.47-35.5,27.11-59.49,32.67-11.42,2.65-16.1,14.54-10.62,24a51,51,0,0,1,7.05,25.75c0,13.22-5.24,25.47-14.13,35.49a15.53,15.53,0,0,0,0,21.15C173.86,177.16,179.1,189.42,179.1,202.63Z"/><path class="cls-2" d="M347,146c-8.89-10-14.13-22.27-14.13-35.49A51,51,0,0,1,340,84.76c5.48-9.47.8-21.36-10.62-24-24-5.57-44.75-17.2-59.49-32.67a19.41,19.41,0,0,0-27.7,0q-2.81,3-5.92,5.71c14.16,12.62,32.63,22.1,53.57,27,11.42,2.65,16.1,14.54,10.62,24a51,51,0,0,0-7.05,25.75c0,13.22,5.24,25.47,14.13,35.49a15.53,15.53,0,0,1,0,21.15c-8.89,10-14.13,22.27-14.13,35.49a50,50,0,0,0,3,16.75,76.85,76.85,0,0,0-60.1,9.68A78.58,78.58,0,0,1,256,246.86a77.28,77.28,0,0,1,79.87-27.48,50,50,0,0,1-3-16.75c0-13.22,5.24-25.47,14.13-35.49A15.53,15.53,0,0,0,347,146Z"/><path class="cls-3" d="M425.92,403.82a11.1,11.1,0,0,1-5.55-1.49l-106-61.22a11.13,11.13,0,1,1,11.13-19.28l106,61.22a11.13,11.13,0,0,1-5.58,20.77Z"/><path class="cls-3" d="M86.08,403.82A11.13,11.13,0,0,1,80.51,383l106-61.22a11.13,11.13,0,0,1,11.13,19.28l-106,61.22A11.08,11.08,0,0,1,86.08,403.82Z"/><path class="cls-3" d="M256,250.43a11.13,11.13,0,0,1-11.13-11.13V116.87a11.13,11.13,0,1,1,22.26,0V239.3A11.13,11.13,0,0,1,256,250.43Z"/><circle class="cls-4" cx="194.78" cy="294.96" r="77.91"/><path class="cls-5" d="M198.28,217A61.18,61.18,0,1,1,117,298.28,77.86,77.86,0,1,0,198.28,217Z"/><circle class="cls-4" cx="317.22" cy="294.96" r="77.91"/><path class="cls-5" d="M320.72,217.22a61.18,61.18,0,1,1-81.24,81.24,77.86,77.86,0,1,0,81.24-81.24Z"/><circle class="cls-4" cx="256" cy="411.83" r="77.91"/><path class="cls-5" d="M259.32,333.91a61.18,61.18,0,1,1-81.24,81.24,77.86,77.86,0,1,0,81.24-81.24Z"/></svg>